<svg width="2000" height="2000" viewBox="0 0 2000 2000" fill="none" xmlns="http://www.w3.org/2000/svg">
<path d="M1733.37 587.846L1348.59 227.486C1320.3 201.249 1283.95 185.383 1245.48 182.483C1207.01 179.582 1168.69 189.817 1136.8 211.516L293.367 791.154C271.144 806.503 252.893 826.92 240.122 850.718C227.35 874.516 220.426 901.012 219.921 928.016L214.023 1287.91C213.626 1312.08 218.402 1336.05 228.032 1358.21C237.662 1380.38 251.922 1400.22 269.855 1416.42L666.686 1774.9C695.015 1800.66 731.262 1816.03 769.474 1818.46C807.687 1820.9 845.592 1810.27 876.964 1788.32L1705.35 1212.72C1751.74 1179.17 1776.54 1133.23 1778.05 1077.74L1786.96 715.673C1787.5 691.799 1783.01 668.076 1773.78 646.052C1764.55 624.028 1750.78 604.195 1733.37 587.846ZM255.655 1317.91C253.589 1308.26 252.624 1298.41 252.777 1288.55L258.676 928.652C258.851 918.428 260.228 908.261 262.781 898.36L312.24 944.763C316.014 948.121 320.95 949.873 325.996 949.645C331.043 949.417 335.801 947.227 339.257 943.543C342.713 939.859 344.594 934.971 344.499 929.92C344.404 924.869 342.341 920.056 338.749 916.504L279.193 860.623C288.594 845.821 300.881 833.066 315.321 823.119L1158.75 243.458C1178.94 229.628 1202.63 221.783 1227.09 220.825L1221.1 698.102C1206.64 699.767 1192.76 704.774 1180.56 712.727L556.673 1120.95L550.765 1115.41C547.105 1111.97 542.252 1110.09 537.231 1110.17C532.211 1110.24 527.417 1112.27 523.864 1115.81C520.31 1119.36 518.275 1124.15 518.19 1129.17C518.105 1134.19 519.975 1139.05 523.406 1142.72L255.655 1317.91ZM1683.21 1180.9L854.835 1756.5C835.305 1770.12 812.423 1778.15 788.661 1779.72V1701.94C788.661 1696.8 786.619 1691.87 782.984 1688.23C779.35 1684.6 774.42 1682.56 769.28 1682.56C764.14 1682.56 759.211 1684.6 755.576 1688.23C751.941 1691.87 749.9 1696.8 749.9 1701.94V1776.4C728.588 1771.27 708.908 1760.86 692.669 1746.14L295.838 1387.66C285.433 1378.26 276.608 1367.24 269.703 1355.04L552.383 1170.06L594.895 1209.98C598.643 1213.5 603.636 1215.38 608.773 1215.22C613.911 1215.05 618.773 1212.85 622.29 1209.11C625.807 1205.36 627.691 1200.36 627.527 1195.23C627.364 1190.09 625.165 1185.23 621.417 1181.71L585.744 1148.24L1201.78 745.161C1211.98 738.519 1224.07 735.393 1236.21 736.257C1248.34 737.121 1259.87 741.929 1269.02 749.948L1410.9 874.803L1393.53 886.948C1391.4 888.39 1389.59 890.24 1388.19 892.39C1386.78 894.54 1385.82 896.948 1385.36 899.472C1384.89 901.997 1384.93 904.589 1385.48 907.098C1386.02 909.607 1387.06 911.982 1388.53 914.087C1390 916.191 1391.88 917.982 1394.05 919.355C1396.21 920.729 1398.63 921.658 1401.17 922.088C1403.7 922.519 1406.29 922.442 1408.79 921.863C1411.29 921.283 1413.65 920.212 1415.74 918.713L1440.85 901.157L1717.95 1145.03C1708.79 1159.11 1697 1171.29 1683.21 1180.9ZM1748.19 714.73L1739.29 1076.8C1739.02 1087.37 1737.46 1097.87 1734.64 1108.07L1473.54 878.301L1495.16 863.198C1499.37 860.253 1502.24 855.755 1503.14 850.693C1504.03 845.632 1502.88 840.422 1499.94 836.209C1496.99 831.995 1492.5 829.125 1487.43 828.228C1482.37 827.331 1477.16 828.482 1472.95 831.426L1443.59 851.947L1294.62 720.851C1284.54 711.993 1272.67 705.402 1259.82 701.526L1265.8 224.943C1286.85 230.34 1306.21 240.943 1322.09 255.778L1706.88 616.132C1717.27 625.884 1726 637.273 1732.72 649.848L1711.21 664.88C1709.12 666.338 1707.35 668.193 1705.98 670.339C1704.61 672.484 1703.67 674.878 1703.23 677.384C1702.79 679.89 1702.84 682.46 1703.39 684.945C1703.94 687.43 1704.97 689.783 1706.43 691.869C1707.89 693.955 1709.74 695.734 1711.89 697.103C1714.03 698.472 1716.43 699.406 1718.93 699.85C1721.44 700.294 1724.01 700.24 1726.49 699.691C1728.98 699.142 1731.33 698.109 1733.42 696.651L1746.04 687.83C1747.69 696.698 1748.41 705.713 1748.19 714.73Z" fill="white"/>
<path d="M409.429 982.797C405.681 979.28 400.688 977.397 395.551 977.56C390.413 977.724 385.551 979.922 382.033 983.671C378.516 987.42 376.633 992.412 376.796 997.55C376.96 1002.69 379.158 1007.55 382.907 1011.07L453.575 1077.36C457.324 1080.88 462.316 1082.76 467.454 1082.6C472.592 1082.43 477.454 1080.24 480.971 1076.49C484.488 1072.74 486.372 1067.75 486.208 1062.61C486.044 1057.47 483.846 1052.61 480.097 1049.09L409.429 982.797Z" fill="white"/>
<path d="M769.28 1488.75C764.14 1488.75 759.211 1490.79 755.576 1494.43C751.942 1498.06 749.9 1502.99 749.9 1508.13V1605.03C749.9 1610.17 751.942 1615.1 755.576 1618.74C759.211 1622.37 764.14 1624.41 769.28 1624.41C774.42 1624.41 779.35 1622.37 782.984 1618.74C786.619 1615.1 788.661 1610.17 788.661 1605.03V1508.13C788.661 1502.99 786.619 1498.06 782.984 1494.43C779.35 1490.79 774.42 1488.75 769.28 1488.75Z" fill="white"/>
<path d="M1155.27 1053.51L1075.85 1109.04C1073.73 1110.48 1071.91 1112.33 1070.51 1114.48C1069.11 1116.63 1068.14 1119.03 1067.68 1121.56C1067.21 1124.08 1067.26 1126.68 1067.8 1129.19C1068.35 1131.69 1069.39 1134.07 1070.86 1136.17C1072.33 1138.28 1074.2 1140.07 1076.37 1141.44C1078.54 1142.82 1080.96 1143.74 1083.49 1144.18C1086.02 1144.61 1088.61 1144.53 1091.11 1143.95C1093.62 1143.37 1095.98 1142.3 1098.06 1140.8L1177.48 1085.28C1181.69 1082.34 1184.56 1077.84 1185.46 1072.78C1186.36 1067.72 1185.2 1062.51 1182.26 1058.3C1179.32 1054.08 1174.82 1051.21 1169.76 1050.31C1164.69 1049.42 1159.48 1050.57 1155.27 1053.51Z" fill="white"/>
<path d="M996.432 1164.57L917.014 1220.1C914.901 1221.54 913.097 1223.39 911.704 1225.54C910.311 1227.69 909.358 1230.1 908.9 1232.61C908.442 1235.13 908.487 1237.72 909.034 1240.22C909.58 1242.72 910.617 1245.09 912.084 1247.19C913.552 1249.29 915.42 1251.07 917.582 1252.45C919.744 1253.82 922.157 1254.75 924.68 1255.18C927.204 1255.62 929.788 1255.55 932.284 1254.98C934.781 1254.41 937.139 1253.35 939.224 1251.86L1018.64 1196.33C1020.77 1194.9 1022.6 1193.05 1024.02 1190.9C1025.43 1188.75 1026.4 1186.34 1026.87 1183.8C1027.34 1181.27 1027.31 1178.67 1026.76 1176.16C1026.22 1173.64 1025.18 1171.26 1023.7 1169.15C1022.23 1167.04 1020.35 1165.24 1018.17 1163.87C1015.99 1162.5 1013.57 1161.57 1011.03 1161.14C1008.49 1160.72 1005.89 1160.8 1003.38 1161.39C1000.88 1161.98 998.515 1163.06 996.432 1164.57Z" fill="white"/>
<path d="M1314.11 942.47L1234.69 997.989C1232.6 999.447 1230.82 1001.3 1229.46 1003.45C1228.09 1005.59 1227.15 1007.99 1226.71 1010.49C1226.26 1013 1226.32 1015.57 1226.87 1018.05C1227.42 1020.54 1228.45 1022.89 1229.91 1024.98C1231.37 1027.06 1233.22 1028.84 1235.37 1030.21C1237.51 1031.58 1239.9 1032.51 1242.41 1032.96C1244.92 1033.4 1247.49 1033.35 1249.97 1032.8C1252.46 1032.25 1254.81 1031.22 1256.9 1029.76L1336.32 974.241C1340.53 971.297 1343.4 966.799 1344.3 961.737C1345.19 956.676 1344.04 951.465 1341.1 947.252C1338.15 943.039 1333.66 940.169 1328.6 939.272C1323.53 938.375 1318.32 939.525 1314.11 942.47Z" fill="white"/>
<path d="M1631.79 720.396L1552.37 775.908C1550.28 777.366 1548.51 779.221 1547.14 781.366C1545.77 783.512 1544.83 785.906 1544.39 788.412C1543.95 790.918 1544 793.487 1544.55 795.972C1545.1 798.458 1546.13 800.811 1547.59 802.897C1549.05 804.983 1550.9 806.761 1553.05 808.131C1555.19 809.5 1557.59 810.433 1560.09 810.877C1562.6 811.321 1565.17 811.268 1567.65 810.719C1570.14 810.17 1572.49 809.137 1574.58 807.679L1654 752.167C1656.08 750.709 1657.86 748.854 1659.23 746.708C1660.6 744.563 1661.54 742.169 1661.98 739.663C1662.42 737.157 1662.37 734.587 1661.82 732.102C1661.27 729.617 1660.24 727.264 1658.78 725.178C1657.32 723.092 1655.47 721.313 1653.32 719.944C1651.18 718.575 1648.78 717.641 1646.28 717.197C1643.77 716.753 1641.2 716.807 1638.72 717.356C1636.23 717.905 1633.88 718.938 1631.79 720.396Z" fill="white"/>
<path d="M837.594 1275.6L770.87 1322.25L692.098 1248.01C688.349 1244.5 683.357 1242.61 678.219 1242.78C673.081 1242.94 668.219 1245.14 664.702 1248.89C661.185 1252.64 659.301 1257.63 659.465 1262.77C659.629 1267.9 661.827 1272.77 665.576 1276.28L749.9 1355.05V1411.23C749.9 1416.37 751.942 1421.3 755.577 1424.93C759.211 1428.57 764.141 1430.61 769.281 1430.61C774.421 1430.61 779.35 1428.57 782.985 1424.93C786.619 1421.3 788.661 1416.37 788.661 1411.23V1357.11L859.804 1307.36C861.916 1305.92 863.721 1304.06 865.113 1301.92C866.506 1299.77 867.459 1297.36 867.917 1294.84C868.376 1292.32 868.33 1289.74 867.784 1287.24C867.237 1284.74 866.2 1282.37 864.733 1280.27C863.266 1278.17 861.397 1276.38 859.235 1275.01C857.073 1273.64 854.661 1272.71 852.137 1272.28C849.614 1271.84 847.029 1271.91 844.533 1272.48C842.037 1273.05 839.678 1274.11 837.594 1275.6V1275.6Z" fill="white"/>
</svg>
