<svg width="2000" height="2000" viewBox="0 0 2000 2000" fill="none" xmlns="http://www.w3.org/2000/svg">
<path d="M1001.58 1832C1165.82 1831.99 1326.37 1783.29 1462.92 1692.04C1599.48 1600.8 1705.92 1471.11 1768.77 1319.37C1831.62 1167.64 1848.06 1000.67 1816.03 839.588C1783.99 678.506 1704.9 530.542 1588.77 414.405C1511.81 336.61 1420.24 274.792 1319.31 232.506C1218.38 190.22 1110.09 168.299 1000.66 168.003C891.231 167.707 782.822 189.043 681.666 230.783C580.51 272.523 488.601 333.845 411.223 411.223C333.845 488.601 272.523 580.51 230.783 681.666C189.043 782.822 167.707 891.231 168.003 1000.66C168.299 1110.09 190.22 1218.38 232.506 1319.31C274.792 1420.24 336.61 1511.81 414.405 1588.77C491.334 1666.13 582.842 1727.45 683.63 1769.2C784.419 1810.95 892.488 1832.29 1001.58 1832ZM1001.58 1792.76C825.602 1793.27 654.555 1734.64 515.886 1626.29C518.638 1626.6 521.426 1626.34 524.07 1625.51C526.714 1624.68 529.155 1623.31 531.235 1621.48C533.315 1619.65 534.989 1617.4 536.148 1614.89C537.307 1612.37 537.925 1609.64 537.964 1606.87C537.982 1604.29 537.492 1601.74 536.523 1599.35C535.554 1596.97 534.124 1594.79 532.315 1592.96C530.507 1591.12 528.354 1589.66 525.981 1588.66C523.608 1587.66 521.061 1587.13 518.485 1587.12C484.892 1586.88 459.195 1578.11 442.129 1561.03C397.607 1516.5 410.374 1413.75 477.154 1279.1C515.778 1201.21 569.784 1117.59 635.456 1033.06C685.5 1094.21 738.591 1152.81 794.526 1208.62C850.322 1264.53 908.895 1317.6 970.025 1367.63C961.649 1374.13 953.286 1380.56 944.975 1386.8C940.813 1389.92 938.062 1394.57 937.326 1399.72C936.59 1404.87 937.931 1410.1 941.052 1414.27C944.174 1418.43 948.821 1421.18 953.971 1421.91C959.121 1422.65 964.353 1421.31 968.515 1418.19C979.451 1409.98 990.462 1401.49 1001.49 1392.84C1090.68 1462.81 1179.21 1520.27 1261.65 1561.16C1351.27 1605.25 1424.92 1626.87 1487.56 1626.07C1348.84 1734.56 1177.68 1793.27 1001.58 1792.76ZM1792.76 1001.58C1793.27 1177.56 1734.64 1348.61 1626.29 1487.28C1626.61 1484.51 1626.34 1481.71 1625.5 1479.06C1624.67 1476.4 1623.28 1473.96 1621.43 1471.87C1619.59 1469.79 1617.33 1468.12 1614.79 1466.97C1612.26 1465.82 1609.51 1465.22 1606.73 1465.2C1601.55 1465.2 1596.58 1467.25 1592.91 1470.9C1589.23 1474.54 1587.15 1479.5 1587.11 1484.68C1586.88 1518.27 1578.1 1543.96 1561.03 1561.03C1516.51 1605.55 1413.75 1592.78 1279.1 1526.01C1201.19 1487.37 1117.55 1433.35 1033 1367.66C1037.42 1364.06 1041.85 1360.47 1046.25 1356.81C1050.18 1353.47 1052.64 1348.72 1053.09 1343.58C1053.54 1338.44 1051.94 1333.33 1048.65 1329.35C1045.36 1325.38 1040.63 1322.86 1035.5 1322.35C1030.37 1321.83 1025.24 1323.36 1021.22 1326.6C1014.68 1332.02 1008.12 1337.39 1001.54 1342.71C939.001 1291.93 879.161 1237.92 822.263 1180.9C765.226 1123.99 711.205 1064.13 660.421 1001.58C711.202 939.028 765.22 879.174 822.254 822.263C973.932 670.595 1136.17 548.027 1279.09 477.154C1413.75 410.374 1516.5 397.613 1561.03 442.129C1710.24 592.258 1792.69 788.828 1792.76 1001.58ZM442.129 442.132C591.454 295.551 788.419 209.148 1001.58 210.397C1177.69 209.893 1348.85 268.605 1487.57 377.098C1427.61 376.013 1350.91 397.741 1261.65 442.005C1179.22 482.872 1090.69 540.354 1001.51 610.308C975.717 590.084 949.693 570.68 924.127 552.636C922.027 551.081 919.637 549.961 917.098 549.342C914.559 548.723 911.922 548.618 909.341 549.033C906.761 549.447 904.29 550.373 902.072 551.756C899.855 553.139 897.936 554.951 896.429 557.086C894.921 559.22 893.855 561.635 893.294 564.187C892.733 566.74 892.687 569.378 893.16 571.949C893.633 574.519 894.614 576.969 896.047 579.154C897.48 581.34 899.335 583.217 901.503 584.676C924.133 600.647 947.127 617.742 970.012 635.511C847.764 735.771 735.702 847.844 635.456 970.104C569.784 885.578 515.778 801.951 477.154 724.065C410.374 589.413 397.607 486.658 442.129 442.132ZM210.397 1001.58C209.892 825.473 268.605 654.307 377.102 515.588C376.016 575.548 397.744 652.247 442.005 741.501C482.872 823.918 540.331 912.422 610.262 1001.58C540.331 1090.75 482.878 1179.25 442.005 1261.67C397.744 1350.92 376.016 1427.62 377.102 1487.58C268.604 1348.86 209.891 1177.69 210.397 1001.58Z" fill="white"/>
<path d="M1475.59 1115.51C1474.17 1113.33 1472.34 1111.45 1470.19 1109.98C1468.05 1108.51 1465.63 1107.48 1463.09 1106.96C1460.54 1106.43 1457.92 1106.42 1455.36 1106.91C1452.81 1107.41 1450.38 1108.41 1448.22 1109.85C1446.06 1111.3 1444.21 1113.16 1442.77 1115.32C1441.33 1117.49 1440.34 1119.92 1439.85 1122.48C1439.36 1125.03 1439.38 1127.66 1439.92 1130.2C1440.45 1132.74 1441.49 1135.16 1442.96 1137.3C1461.55 1165.13 1478.74 1192.78 1494.06 1219.46C1496.65 1223.98 1500.92 1227.27 1505.94 1228.63C1510.97 1229.99 1516.32 1229.3 1520.83 1226.71C1525.35 1224.12 1528.65 1219.85 1530.01 1214.83C1531.37 1209.8 1530.67 1204.45 1528.08 1199.94C1512.33 1172.48 1494.67 1144.08 1475.59 1115.51Z" fill="white"/>
<path d="M1392.8 1001.6C1413.04 975.769 1432.47 949.729 1450.53 924.136C1452.08 922.036 1453.2 919.646 1453.82 917.107C1454.44 914.568 1454.54 911.931 1454.13 909.351C1453.71 906.771 1452.79 904.299 1451.41 902.082C1450.02 899.864 1448.21 897.946 1446.08 896.438C1443.94 894.931 1441.53 893.865 1438.97 893.304C1436.42 892.742 1433.78 892.697 1431.21 893.17C1428.64 893.642 1426.19 894.624 1424.01 896.056C1421.82 897.489 1419.94 899.344 1418.49 901.512C1402.5 924.162 1385.39 947.175 1367.6 970.077C1364.02 965.687 1360.45 961.289 1356.82 956.912C1353.47 952.981 1348.72 950.525 1343.58 950.076C1338.44 949.627 1333.33 951.22 1329.36 954.512C1325.38 957.803 1322.87 962.527 1322.35 967.661C1321.84 972.794 1323.37 977.924 1326.61 981.938C1347.6 1007.28 1367.86 1032.94 1386.82 1058.19C1388.37 1060.25 1390.3 1061.98 1392.52 1063.3C1394.74 1064.61 1397.19 1065.47 1399.74 1065.83C1402.29 1066.2 1404.89 1066.05 1407.39 1065.41C1409.88 1064.77 1412.23 1063.65 1414.29 1062.1C1416.35 1060.55 1418.09 1058.62 1419.4 1056.4C1420.71 1054.18 1421.57 1051.73 1421.94 1049.18C1422.3 1046.63 1422.16 1044.03 1421.52 1041.53C1420.88 1039.04 1419.75 1036.69 1418.2 1034.63C1409.96 1023.68 1401.45 1012.64 1392.8 1001.6Z" fill="white"/>
<path d="M558.851 419.309C589.787 424.599 620.11 432.996 649.36 444.372C651.771 445.279 654.337 445.702 656.912 445.617C659.487 445.532 662.019 444.94 664.365 443.877C666.711 442.813 668.825 441.297 670.586 439.417C672.346 437.536 673.719 435.327 674.626 432.916C675.532 430.505 675.955 427.939 675.87 425.364C675.785 422.79 675.194 420.257 674.13 417.911C673.067 415.565 671.551 413.451 669.67 411.691C667.79 409.93 665.581 408.557 663.17 407.651C631.417 395.331 598.501 386.252 564.922 380.551C562.367 380.128 559.753 380.216 557.232 380.808C554.71 381.401 552.331 382.488 550.232 384.005C548.133 385.522 546.354 387.439 545 389.647C543.646 391.855 542.742 394.309 542.341 396.868C541.94 399.427 542.05 402.04 542.665 404.556C543.279 407.073 544.386 409.442 545.92 411.529C547.455 413.615 549.388 415.377 551.608 416.712C553.827 418.047 556.289 418.93 558.851 419.309Z" fill="white"/>
<path d="M1262.92 908.457C1266.41 912.315 1271.29 914.629 1276.49 914.889C1281.69 915.15 1286.77 913.335 1290.63 909.845C1294.49 906.354 1296.81 901.474 1297.07 896.277C1297.33 891.081 1295.51 885.994 1292.02 882.135C1270.15 857.942 1247.32 833.749 1224.17 810.186C1222.36 808.349 1220.21 806.885 1217.84 805.878C1215.47 804.871 1212.92 804.341 1210.35 804.319C1207.77 804.296 1205.21 804.781 1202.83 805.745C1200.44 806.71 1198.26 808.136 1196.42 809.941C1194.59 811.747 1193.12 813.896 1192.12 816.267C1191.11 818.639 1190.58 821.185 1190.56 823.761C1190.53 826.337 1191.02 828.892 1191.98 831.28C1192.95 833.669 1194.37 835.844 1196.18 837.682C1218.94 860.865 1241.4 884.679 1262.92 908.457Z" fill="white"/>
<path d="M1574.02 1288.61C1571.85 1283.88 1567.89 1280.2 1563.01 1278.39C1558.13 1276.58 1552.74 1276.78 1548.01 1278.95C1543.28 1281.11 1539.6 1285.07 1537.79 1289.95C1535.98 1294.83 1536.18 1300.22 1538.35 1304.95C1551.75 1333.76 1563.09 1363.49 1572.28 1393.9C1572.97 1396.41 1574.16 1398.76 1575.77 1400.8C1577.38 1402.85 1579.38 1404.56 1581.65 1405.82C1583.93 1407.09 1586.43 1407.89 1589.02 1408.17C1591.61 1408.46 1594.22 1408.23 1596.72 1407.5C1599.22 1406.76 1601.54 1405.54 1603.56 1403.9C1605.58 1402.25 1607.26 1400.23 1608.48 1397.93C1609.71 1395.64 1610.47 1393.12 1610.72 1390.53C1610.96 1387.94 1610.69 1385.32 1609.91 1382.84C1600.2 1350.61 1588.2 1319.13 1574.02 1288.61Z" fill="white"/>
<path d="M736.763 483.565C763.814 497.454 792.068 513.473 820.733 531.18C825.158 533.861 830.462 534.685 835.492 533.474C840.521 532.262 844.868 529.113 847.587 524.712C850.306 520.31 851.176 515.013 850.007 509.974C848.839 504.934 845.728 500.56 841.35 497.803C811.808 479.557 782.652 463.024 754.686 448.662C750.057 446.285 744.674 445.844 739.721 447.437C734.767 449.029 730.649 452.524 728.273 457.152C725.896 461.781 725.455 467.164 727.048 472.117C728.64 477.071 732.135 481.189 736.763 483.565Z" fill="white"/>
<path d="M1154.34 768.781C1157.9 764.988 1159.81 759.936 1159.65 754.736C1159.48 749.536 1157.26 744.614 1153.47 741.053C1129.33 718.383 1104.6 696.113 1079.96 674.855C1076.01 671.509 1070.91 669.858 1065.75 670.26C1060.59 670.662 1055.8 673.086 1052.42 677.004C1049.04 680.921 1047.35 686.015 1047.7 691.176C1048.06 696.337 1050.45 701.148 1054.34 704.561C1078.55 725.458 1102.87 747.356 1126.61 769.653C1128.49 771.417 1130.7 772.794 1133.11 773.704C1135.52 774.615 1138.08 775.042 1140.66 774.961C1143.23 774.88 1145.77 774.292 1148.11 773.232C1150.46 772.172 1152.58 770.659 1154.34 768.781Z" fill="white"/>
<path d="M1165.48 1196.17C1142.3 1218.94 1118.48 1241.4 1094.71 1262.92C1090.85 1266.41 1088.53 1271.29 1088.27 1276.49C1088.01 1281.69 1089.83 1286.77 1093.32 1290.63C1096.81 1294.49 1101.69 1296.81 1106.88 1297.07C1112.08 1297.33 1117.17 1295.51 1121.03 1292.02C1145.2 1270.15 1169.41 1247.32 1192.98 1224.17C1194.81 1222.36 1196.28 1220.21 1197.28 1217.84C1198.29 1215.47 1198.82 1212.92 1198.84 1210.35C1198.87 1207.77 1198.38 1205.21 1197.42 1202.83C1196.45 1200.44 1195.03 1198.26 1193.22 1196.42C1191.42 1194.59 1189.27 1193.12 1186.89 1192.12C1184.52 1191.11 1181.98 1190.58 1179.4 1190.56C1176.83 1190.53 1174.27 1191.02 1171.88 1191.98C1169.49 1192.95 1167.32 1194.37 1165.48 1196.18V1196.17Z" fill="white"/>
<path d="M1326.27 1052.3C1322.33 1048.9 1317.2 1047.2 1312.01 1047.59C1306.82 1047.97 1302 1050.4 1298.6 1054.34C1277.7 1078.55 1255.81 1102.87 1233.51 1126.61C1231.75 1128.49 1230.37 1130.7 1229.46 1133.11C1228.55 1135.52 1228.12 1138.08 1228.2 1140.66C1228.28 1143.23 1228.87 1145.76 1229.93 1148.11C1230.99 1150.46 1232.5 1152.58 1234.38 1154.34C1236.26 1156.1 1238.47 1157.48 1240.88 1158.39C1243.29 1159.3 1245.85 1159.73 1248.43 1159.65C1251 1159.57 1253.53 1158.98 1255.88 1157.92C1258.23 1156.86 1260.35 1155.35 1262.11 1153.47C1284.78 1129.33 1307.05 1104.6 1328.31 1079.96C1331.71 1076.02 1333.4 1070.89 1333.02 1065.71C1332.63 1060.52 1330.21 1055.69 1326.27 1052.3Z" fill="white"/>
<path d="M1570.25 674.627C1575.11 676.451 1580.51 676.27 1585.24 674.125C1589.98 671.981 1593.67 668.046 1595.51 663.184C1607.83 631.431 1616.91 598.515 1622.61 564.937C1623.03 562.381 1622.95 559.767 1622.35 557.246C1621.76 554.725 1620.68 552.345 1619.16 550.246C1617.64 548.147 1615.72 546.369 1613.52 545.014C1611.31 543.66 1608.85 542.756 1606.29 542.355C1603.74 541.955 1601.12 542.065 1598.61 542.679C1596.09 543.293 1593.72 544.4 1591.63 545.935C1589.55 547.47 1587.79 549.403 1586.45 551.622C1585.12 553.841 1584.23 556.303 1583.85 558.865C1578.56 589.801 1570.17 620.124 1558.79 649.374C1556.96 654.242 1557.14 659.636 1559.29 664.372C1561.44 669.107 1565.38 672.795 1570.25 674.627Z" fill="white"/>
<path d="M1478.36 847.735C1480.55 849.089 1482.99 849.998 1485.53 850.41C1488.07 850.822 1490.67 850.73 1493.18 850.137C1495.69 849.545 1498.05 848.465 1500.14 846.958C1502.23 845.451 1504.01 843.548 1505.36 841.356C1523.61 811.815 1540.14 782.658 1554.5 754.692C1555.68 752.401 1556.39 749.899 1556.6 747.331C1556.81 744.764 1556.52 742.179 1555.73 739.726C1554.94 737.273 1553.68 735 1552.01 733.035C1550.34 731.07 1548.31 729.453 1546.01 728.276C1543.72 727.099 1541.22 726.384 1538.65 726.174C1536.08 725.963 1533.5 726.26 1531.05 727.049C1528.59 727.837 1526.32 729.1 1524.36 730.767C1522.39 732.434 1520.77 734.471 1519.6 736.763C1505.71 763.814 1489.69 792.068 1471.98 820.733C1470.63 822.925 1469.72 825.362 1469.31 827.905C1468.89 830.448 1468.99 833.048 1469.58 835.555C1470.17 838.063 1471.25 840.429 1472.76 842.519C1474.26 844.609 1476.17 846.381 1478.36 847.735Z" fill="white"/>
<path d="M698.221 1538.35C669.407 1551.75 639.678 1563.09 609.259 1572.28C606.75 1572.97 604.404 1574.16 602.358 1575.77C600.312 1577.38 598.606 1579.38 597.341 1581.65C596.076 1583.93 595.276 1586.43 594.988 1589.02C594.7 1591.61 594.93 1594.22 595.665 1596.72C596.399 1599.22 597.623 1601.54 599.265 1603.56C600.908 1605.58 602.936 1607.26 605.231 1608.48C607.526 1609.71 610.043 1610.47 612.635 1610.72C615.226 1610.96 617.841 1610.69 620.325 1609.91C652.543 1600.2 684.028 1588.2 714.542 1574.02C719.272 1571.85 722.947 1567.89 724.759 1563.01C726.57 1558.13 726.37 1552.74 724.203 1548.01C722.035 1543.28 718.077 1539.6 713.2 1537.79C708.322 1535.98 702.925 1536.18 698.195 1538.35H698.221Z" fill="white"/>
<path d="M865.864 1442.96C838.028 1461.55 810.383 1478.74 783.698 1494.06C779.186 1496.65 775.887 1500.92 774.527 1505.94C773.168 1510.97 773.859 1516.32 776.448 1520.83C779.038 1525.35 783.314 1528.65 788.336 1530.01C793.357 1531.37 798.714 1530.67 803.226 1528.08C830.689 1512.33 859.08 1494.67 887.651 1475.59C889.834 1474.17 891.714 1472.34 893.183 1470.19C894.651 1468.05 895.679 1465.63 896.205 1463.09C896.731 1460.54 896.746 1457.92 896.249 1455.36C895.751 1452.81 894.752 1450.38 893.307 1448.22C891.863 1446.06 890.004 1444.21 887.837 1442.77C885.67 1441.33 883.239 1440.34 880.686 1439.85C878.132 1439.36 875.506 1439.38 872.962 1439.92C870.417 1440.45 868.005 1441.49 865.864 1442.96Z" fill="white"/>
</svg>
