<svg width="2000" height="2000" viewBox="0 0 2000 2000" fill="none" xmlns="http://www.w3.org/2000/svg">
<path d="M1488.15 1409.09H150.557C124.992 1409.09 101.838 1396.07 88.3319 1373.88C75.308 1351.69 74.3433 1325.16 86.8847 1302.49L448.175 629.107C460.717 605.471 485.318 591 511.848 591H1849.44C1875.01 591 1898.16 604.024 1911.67 626.213C1924.69 648.401 1925.66 674.931 1913.12 697.602L1551.82 1370.98C1539.28 1394.62 1514.68 1409.09 1488.15 1409.09ZM511.848 639.236C503.165 639.236 494.965 644.06 490.623 651.778L129.333 1325.16C123.544 1336.25 127.886 1345.42 129.815 1348.79C131.745 1352.17 138.015 1360.37 150.557 1360.37H1488.15C1496.83 1360.37 1505.04 1355.55 1509.38 1347.83L1870.67 674.449C1876.46 663.355 1872.11 654.19 1870.18 650.813C1868.26 647.437 1861.98 639.236 1849.44 639.236H511.848Z" fill="white"/>
</svg>
