<svg width="2000" height="2000" viewBox="0 0 2000 2000" fill="none" xmlns="http://www.w3.org/2000/svg">
<path d="M1316.94 1209.66C1319.48 1214.21 1323.72 1217.57 1328.74 1218.99C1333.75 1220.42 1339.13 1219.79 1343.68 1217.25C1348.23 1214.71 1351.59 1210.46 1353.02 1205.45C1354.44 1200.43 1353.81 1195.06 1351.27 1190.5C1335.44 1162.13 1317.9 1133.5 1299.13 1105.36C1296.24 1101.02 1291.74 1098.01 1286.62 1096.99C1281.51 1095.97 1276.2 1097.03 1271.87 1099.92C1267.53 1102.81 1264.52 1107.31 1263.5 1112.43C1262.48 1117.54 1263.53 1122.85 1266.42 1127.19C1284.62 1154.45 1301.62 1182.2 1316.94 1209.66Z" fill="white"/>
<path d="M1009.77 837.771C1033.93 858.74 1057.86 880.94 1080.92 903.727C1082.75 905.579 1084.92 907.049 1087.33 908.053C1089.73 909.057 1092.3 909.574 1094.9 909.575C1097.51 909.575 1100.08 909.06 1102.48 908.057C1104.88 907.055 1107.06 905.586 1108.89 903.736C1110.72 901.885 1112.16 899.69 1113.14 897.277C1114.11 894.865 1114.6 892.283 1114.57 889.681C1114.53 887.08 1113.99 884.51 1112.96 882.122C1111.92 879.733 1110.43 877.573 1108.56 875.767C1084.9 852.387 1060.34 829.616 1035.56 808.087C1031.62 804.668 1026.49 802.953 1021.28 803.319C1016.08 803.685 1011.24 806.102 1007.82 810.038C1004.4 813.975 1002.69 819.108 1003.05 824.309C1003.42 829.51 1005.84 834.352 1009.77 837.771Z" fill="white"/>
<path d="M1416.46 1478.38C1421.63 1509.38 1423.56 1540.84 1422.21 1572.24C1422.08 1574.81 1422.46 1577.39 1423.33 1579.82C1424.2 1582.26 1425.54 1584.49 1427.27 1586.41C1429 1588.32 1431.09 1589.88 1433.42 1590.98C1435.76 1592.09 1438.29 1592.72 1440.86 1592.85C1446.07 1593.11 1451.17 1591.29 1455.03 1587.8C1458.9 1584.3 1461.22 1579.41 1461.48 1574.2C1462.96 1540.08 1460.89 1505.9 1455.29 1472.21C1454.9 1469.64 1454.01 1467.18 1452.66 1464.96C1451.32 1462.74 1449.55 1460.81 1447.45 1459.28C1445.36 1457.74 1442.98 1456.64 1440.46 1456.03C1437.94 1455.43 1435.32 1455.32 1432.76 1455.73C1430.19 1456.14 1427.74 1457.05 1425.53 1458.41C1423.32 1459.78 1421.4 1461.56 1419.89 1463.67C1418.37 1465.78 1417.29 1468.16 1416.7 1470.69C1416.12 1473.22 1416.03 1475.84 1416.46 1478.39V1478.38Z" fill="white"/>
<path d="M1209.75 1048.63C1211.32 1050.7 1213.29 1052.44 1215.54 1053.74C1217.79 1055.05 1220.27 1055.89 1222.85 1056.23C1225.43 1056.57 1228.04 1056.39 1230.55 1055.71C1233.06 1055.03 1235.41 1053.86 1237.46 1052.26C1239.52 1050.67 1241.23 1048.68 1242.51 1046.42C1243.79 1044.16 1244.61 1041.67 1244.92 1039.09C1245.23 1036.5 1245.03 1033.89 1244.32 1031.39C1243.61 1028.89 1242.42 1026.55 1240.8 1024.51C1220.71 998.63 1199.28 972.891 1177.09 947.958C1175.38 946 1173.3 944.401 1170.97 943.251C1168.64 942.102 1166.11 941.425 1163.52 941.261C1160.92 941.097 1158.32 941.449 1155.87 942.296C1153.41 943.143 1151.15 944.468 1149.21 946.195C1147.27 947.922 1145.69 950.017 1144.56 952.358C1143.43 954.699 1142.78 957.24 1142.64 959.834C1142.51 962.429 1142.88 965.025 1143.75 967.472C1144.63 969.92 1145.97 972.17 1147.72 974.094C1169.33 998.378 1190.2 1023.45 1209.75 1048.63Z" fill="white"/>
<path d="M1394.24 1385.69C1395.8 1390.66 1399.28 1394.81 1403.9 1397.22C1408.52 1399.63 1413.91 1400.11 1418.89 1398.54C1423.86 1396.98 1428.01 1393.5 1430.42 1388.88C1432.83 1384.26 1433.31 1378.87 1431.74 1373.89C1421.61 1341.95 1409.7 1310.6 1396.08 1279.98C1395.03 1277.62 1393.53 1275.49 1391.66 1273.71C1389.79 1271.93 1387.59 1270.54 1385.18 1269.61C1382.77 1268.68 1380.21 1268.23 1377.63 1268.29C1375.05 1268.36 1372.5 1268.93 1370.14 1269.97C1367.78 1271.02 1365.65 1272.52 1363.87 1274.39C1362.09 1276.26 1360.69 1278.46 1359.76 1280.87C1358.83 1283.27 1358.39 1285.84 1358.45 1288.42C1358.51 1291 1359.08 1293.55 1360.13 1295.91C1373.16 1325.18 1384.55 1355.15 1394.24 1385.69Z" fill="white"/>
<path d="M685.034 630.308C713.646 642.297 742.901 656.283 771.985 671.886C776.575 674.305 781.936 674.812 786.898 673.296C791.861 671.779 796.022 668.362 798.475 663.79C800.928 659.217 801.474 653.86 799.994 648.887C798.513 643.914 795.126 639.728 790.572 637.241C760.387 621.049 729.992 606.516 700.226 594.046C695.418 592.031 690.005 592.009 685.181 593.985C680.356 595.961 676.513 599.772 674.499 604.581C672.484 609.39 672.462 614.802 674.438 619.627C676.414 624.451 680.225 628.294 685.034 630.308Z" fill="white"/>
<path d="M618.916 584.797C620.35 579.785 619.733 574.409 617.203 569.851C614.673 565.293 610.436 561.927 605.424 560.493C572.952 551.072 539.792 544.206 506.249 539.956C501.073 539.325 495.858 540.775 491.752 543.988C487.645 547.201 484.983 551.914 484.351 557.09C483.72 562.266 485.17 567.481 488.383 571.587C491.596 575.694 496.309 578.356 501.485 578.988C532.982 582.986 564.118 589.44 594.609 598.292C599.622 599.716 604.995 599.095 609.551 596.566C614.107 594.036 617.475 589.804 618.916 584.797Z" fill="white"/>
<path d="M855.185 721.093C881.763 738.284 908.443 756.986 934.473 776.677C936.528 778.272 938.879 779.444 941.39 780.124C943.901 780.805 946.522 780.98 949.101 780.639C951.68 780.299 954.166 779.451 956.414 778.143C958.663 776.835 960.63 775.093 962.2 773.02C963.771 770.946 964.915 768.581 965.565 766.062C966.215 763.543 966.358 760.92 965.987 758.346C965.616 755.771 964.738 753.295 963.403 751.063C962.068 748.83 960.303 746.884 958.211 745.338C931.407 725.071 903.931 705.816 876.554 688.104C874.386 686.701 871.964 685.74 869.424 685.274C866.885 684.808 864.279 684.847 861.755 685.388C859.23 685.929 856.837 686.962 854.712 688.428C852.587 689.894 850.772 691.765 849.37 693.932C847.968 696.1 847.006 698.523 846.54 701.062C846.074 703.601 846.113 706.207 846.654 708.731C847.195 711.256 848.229 713.649 849.695 715.774C851.161 717.899 853.031 719.714 855.198 721.116L855.185 721.093Z" fill="white"/>
<path d="M502.944 1495.39C617.358 1610.06 746.705 1700.83 877 1757.91C1008.26 1813.46 1120.9 1837.05 1246 1816.15C1376.64 1792.26 1470.58 1711.96 1526.1 1587.01C1637.21 1334.98 1742.64 768.64 1822.08 303.4C1836.37 232.63 1768.62 164.744 1697.83 178.882C1232.42 257.295 665.841 361.477 413.571 472.031C287.376 527.336 207.931 624.021 183.82 751.635C163.366 859.89 183.22 987.533 241.235 1120.75C298.024 1251.17 388.527 1380.72 502.944 1495.39ZM222.451 758.935C234.281 696.311 259.946 643.015 299.446 599.049C335.016 589.24 371.253 582.037 407.871 577.497C413.056 576.95 417.811 574.365 421.09 570.312C424.37 566.259 425.905 561.069 425.358 555.884C424.811 550.699 422.227 545.944 418.174 542.664C414.121 539.385 408.931 537.85 403.746 538.397C389.308 539.909 374.98 542.333 360.848 545.654C382.469 531.025 405.403 518.436 429.354 508.051C677.676 399.227 1242.55 303.478 1704.36 217.661C1749.2 209.326 1791.8 251.673 1783.32 296.791C1696.61 758.431 1599.5 1323.08 1490.13 1571.16C1446.13 1669.02 1355.42 1757.95 1238.79 1777.51C1034.55 1815.63 756.652 1693.99 530.767 1467.62C304.881 1241.26 183.882 963.079 222.451 758.935Z" fill="white"/>
</svg>
