<svg width="2000" height="2000" viewBox="0 0 2000 2000" fill="none" xmlns="http://www.w3.org/2000/svg">
<path d="M1257.07 1318.5C1258.58 1320.6 1260.49 1322.39 1262.7 1323.75C1264.9 1325.12 1267.36 1326.03 1269.92 1326.44C1272.48 1326.85 1275.09 1326.75 1277.61 1326.14C1280.13 1325.54 1282.51 1324.44 1284.6 1322.91C1286.7 1321.38 1288.47 1319.45 1289.81 1317.23C1291.16 1315.01 1292.05 1312.55 1292.44 1309.99C1292.82 1307.42 1292.7 1304.81 1292.07 1302.29C1291.44 1299.78 1290.32 1297.41 1288.77 1295.33L1230.85 1216.06C1229.34 1213.95 1227.43 1212.16 1225.22 1210.8C1223.01 1209.44 1220.56 1208.52 1218 1208.11C1215.44 1207.7 1212.82 1207.81 1210.3 1208.41C1207.78 1209.02 1205.41 1210.12 1203.31 1211.65C1201.22 1213.18 1199.45 1215.11 1198.1 1217.32C1196.76 1219.54 1195.87 1222 1195.48 1224.57C1195.09 1227.13 1195.22 1229.75 1195.85 1232.26C1196.47 1234.78 1197.6 1237.14 1199.14 1239.22L1257.07 1318.5Z" fill="white"/>
<path d="M971.75 894.702C967.545 897.774 964.733 902.39 963.932 907.536C963.132 912.681 964.407 917.934 967.479 922.138L1025.4 1001.41C1028.49 1005.56 1033.1 1008.33 1038.22 1009.1C1043.34 1009.88 1048.56 1008.6 1052.74 1005.54C1056.92 1002.49 1059.72 997.906 1060.54 992.794C1061.36 987.681 1060.13 982.452 1057.11 978.245L999.186 898.973C996.114 894.768 991.497 891.956 986.352 891.155C981.207 890.354 975.954 891.63 971.75 894.702Z" fill="white"/>
<path d="M1372.89 1477.03C1375.96 1481.24 1380.58 1484.05 1385.73 1484.85C1390.87 1485.65 1396.12 1484.37 1400.33 1481.3C1404.53 1478.23 1407.35 1473.61 1408.15 1468.47C1408.95 1463.32 1407.67 1458.07 1404.6 1453.86L1346.68 1374.59C1343.61 1370.39 1338.99 1367.58 1333.85 1366.77C1328.7 1365.97 1323.45 1367.25 1319.24 1370.32C1315.04 1373.39 1312.22 1378.01 1311.42 1383.15C1310.62 1388.3 1311.9 1393.55 1314.97 1397.76L1372.89 1477.03Z" fill="white"/>
<path d="M457.944 889.758L366.409 925.248C361.597 927.161 357.736 930.897 355.665 935.644C353.595 940.391 353.484 945.763 355.356 950.592C357.228 955.42 360.932 959.313 365.661 961.424C370.39 963.534 375.761 963.691 380.605 961.86L472.139 926.37C476.952 924.457 480.813 920.72 482.883 915.974C484.954 911.227 485.065 905.854 483.193 901.026C481.321 896.198 477.617 892.305 472.888 890.194C468.159 888.084 462.788 887.927 457.944 889.758Z" fill="white"/>
<path d="M641.011 818.774L549.477 854.28C544.665 856.194 540.804 859.93 538.733 864.677C536.663 869.424 536.552 874.796 538.424 879.624C540.296 884.453 544 888.346 548.729 890.456C553.458 892.567 558.829 892.724 563.673 890.893L655.207 855.403C660.063 853.52 663.972 849.786 666.074 845.022C668.176 840.257 668.3 834.853 666.417 829.997C664.535 825.142 660.8 821.233 656.036 819.13C651.271 817.028 645.867 816.905 641.011 818.787V818.774Z" fill="white"/>
<path d="M965.751 616.262C967.84 617.774 970.207 618.859 972.716 619.457C975.224 620.054 977.826 620.151 980.372 619.742C982.919 619.334 985.359 618.428 987.556 617.076C989.752 615.724 991.66 613.953 993.171 611.864L1050.72 532.343C1053.78 528.124 1055.03 522.865 1054.2 517.723C1053.38 512.581 1050.55 507.977 1046.33 504.925C1042.11 501.872 1036.85 500.62 1031.71 501.444C1026.57 502.269 1021.96 505.102 1018.91 509.321L961.356 588.842C959.844 590.931 958.759 593.297 958.161 595.806C957.564 598.314 957.466 600.916 957.874 603.462C958.283 606.008 959.188 608.449 960.54 610.646C961.891 612.842 963.662 614.75 965.751 616.262Z" fill="white"/>
<path d="M1080.86 457.194C1082.95 458.706 1085.32 459.791 1087.82 460.388C1090.33 460.986 1092.94 461.083 1095.48 460.674C1098.03 460.266 1100.47 459.36 1102.66 458.008C1104.86 456.656 1106.77 454.885 1108.28 452.795L1165.83 373.275C1168.89 369.055 1170.14 363.796 1169.31 358.654C1168.49 353.511 1165.65 348.908 1161.44 345.855C1157.22 342.802 1151.96 341.55 1146.81 342.375C1141.67 343.2 1137.07 346.033 1134.02 350.253L1076.47 429.774C1074.96 431.862 1073.87 434.229 1073.27 436.737C1072.68 439.245 1072.58 441.847 1072.99 444.393C1073.39 446.94 1074.3 449.381 1075.65 451.577C1077 453.773 1078.77 455.682 1080.86 457.194Z" fill="white"/>
<path d="M1399.62 263.382C1378.12 230.836 1346.7 206.091 1310.02 192.819C1273.34 179.547 1233.37 178.457 1196.02 189.709L615.156 362.4C567.488 376.665 523.213 400.463 485.018 432.351C446.823 464.24 415.502 503.554 392.956 547.909L189.274 950.311C175.189 978.33 168.629 1009.53 170.239 1040.85C171.848 1072.17 181.573 1102.53 198.457 1128.95L569.882 1706.85C598.679 1751.37 641.214 1785.27 691.031 1803.42C740.847 1821.57 795.224 1822.96 845.907 1807.4L1441.4 1622.59C1487.63 1608.34 1526.45 1576.56 1549.53 1534.03L1805.73 1064.33C1823.07 1032.66 1831.4 996.847 1829.81 960.776C1828.22 924.705 1816.77 889.76 1796.71 859.739L1399.62 263.382ZM626.335 400.043L1207.2 227.352C1213.36 225.52 1219.64 224.099 1226 223.098L1191.57 270.705C1188.52 274.925 1187.27 280.184 1188.09 285.326C1188.92 290.469 1191.75 295.073 1195.97 298.125C1200.19 301.178 1205.45 302.43 1210.59 301.605C1215.73 300.78 1220.34 297.947 1223.39 293.727L1274.07 223.696C1292.88 227.173 1310.81 234.407 1326.76 244.966C1342.72 255.526 1356.38 269.194 1366.93 285.153L1764.01 881.508C1777.01 901.029 1785.51 923.187 1788.92 946.388L1160.69 1120L1115.03 1057.5C1111.96 1053.3 1107.34 1050.48 1102.19 1049.68C1097.05 1048.88 1091.8 1050.16 1087.59 1053.23C1083.39 1056.3 1080.57 1060.92 1079.77 1066.06C1078.97 1071.21 1080.25 1076.46 1083.32 1080.67L1120.23 1131.18L1010.49 1161.52L772.581 809.857L861.373 776.893L909.573 842.866C912.645 847.071 917.262 849.884 922.407 850.685C927.553 851.486 932.806 850.211 937.011 847.139C941.216 844.067 944.029 839.45 944.83 834.304C945.631 829.159 944.355 823.906 941.283 819.701L891.791 751.961L935.612 691.4C937.169 689.314 938.295 686.94 938.925 684.415C939.556 681.89 939.678 679.265 939.285 676.692C938.892 674.12 937.991 671.651 936.635 669.43C935.279 667.208 933.496 665.278 931.387 663.753C929.279 662.227 926.889 661.135 924.355 660.541C921.821 659.948 919.194 659.864 916.628 660.294C914.061 660.725 911.606 661.661 909.404 663.049C907.203 664.437 905.299 666.248 903.804 668.379L854.239 736.472L750.024 776.511L528.151 448.525C557.916 426.945 591.115 410.553 626.345 400.043H626.335ZM602.904 1685.62L231.492 1107.72C216.34 1084.05 208.611 1056.38 209.299 1028.28L289.068 997.353C291.472 996.421 293.669 995.024 295.534 993.243C297.398 991.462 298.894 989.331 299.935 986.972C300.976 984.612 301.542 982.071 301.601 979.493C301.66 976.916 301.21 974.351 300.278 971.947C299.346 969.543 297.949 967.346 296.168 965.481C294.387 963.617 292.256 962.121 289.897 961.08C287.538 960.04 284.997 959.473 282.419 959.415C279.841 959.356 277.276 959.805 274.872 960.737L217.931 982.81C219.775 977.769 221.907 972.839 224.319 968.045L427.978 565.649C445.532 531.038 469.118 499.835 497.629 473.507L979.277 1185.5L680.501 1756.1C648.897 1739.83 622.135 1715.52 602.904 1685.62ZM1771.26 1045.52L1515.06 1515.23C1506.26 1531.4 1494.49 1545.76 1480.37 1557.57L1462.52 1533.15C1461.01 1531.04 1459.1 1529.25 1456.89 1527.89C1454.69 1526.53 1452.24 1525.61 1449.67 1525.2C1447.11 1524.79 1444.5 1524.89 1441.98 1525.5C1439.46 1526.11 1437.08 1527.21 1434.99 1528.74C1432.89 1530.27 1431.12 1532.2 1429.78 1534.41C1428.43 1536.63 1427.54 1539.09 1427.16 1541.66C1426.77 1544.22 1426.89 1546.84 1427.52 1549.35C1428.15 1551.87 1429.27 1554.23 1430.82 1556.31L1447.02 1578.49C1441.41 1581.04 1435.65 1583.25 1429.76 1585.08L834.254 1769.89C796.16 1781.68 755.435 1781.98 717.172 1770.75L1015.57 1200.87L1789.67 986.923C1787.4 1007.47 1781.15 1027.38 1771.26 1045.53V1045.52Z" fill="white"/>
</svg>
