<svg width="2000" height="2000" viewBox="0 0 2000 2000" fill="none" xmlns="http://www.w3.org/2000/svg">
<g clip-path="url(#clip0_313_2)">
<path d="M1707.11 1843H293.887C218.877 1843 158 1782.12 158 1707.11V293.887C158 218.877 218.877 158 293.887 158H1707.11C1782.12 158 1843 218.877 1843 293.887V1707.11C1843 1782.12 1782.12 1843 1707.11 1843ZM293.887 212.355C248.773 212.355 212.355 248.773 212.355 293.887V1707.11C212.355 1752.23 248.773 1788.65 293.887 1788.65H1707.11C1752.23 1788.65 1788.65 1752.23 1788.65 1707.11V293.887C1788.65 248.773 1752.23 212.355 1707.11 212.355H293.887Z" fill="white"/>
</g>
<defs>
<clipPath id="clip0_313_2">
<rect width="1685" height="1685" fill="white" transform="translate(158 158)"/>
</clipPath>
</defs>
</svg>
