<svg width="2000" height="2000" viewBox="0 0 2000 2000" fill="none" xmlns="http://www.w3.org/2000/svg">
<path d="M1719.96 1487.75H281.042C216.987 1487.75 165 1435.76 165 1371.71V629.042C165 564.987 216.987 513 281.042 513H1719.96C1784.01 513 1836 564.987 1836 629.042V1371.71C1836 1435.76 1784.01 1487.75 1719.96 1487.75ZM281.042 559.417C242.516 559.417 211.417 590.516 211.417 629.042V1371.71C211.417 1410.23 242.516 1441.33 281.042 1441.33H1719.96C1758.48 1441.33 1789.58 1410.23 1789.58 1371.71V629.042C1789.58 590.516 1758.48 559.417 1719.96 559.417H281.042Z" fill="white"/>
</svg>
