<svg width="2000" height="2000" viewBox="0 0 2000 2000" fill="none" xmlns="http://www.w3.org/2000/svg">
<path d="M1783.71 700.326C1747.29 586.641 1663.77 484.45 1600.12 418.743C1473.46 282.525 1196.94 87.693 1002.04 287.662C969.26 320.434 268.113 1008.49 268.113 1008.49C195.356 1086.25 176.603 1201.36 220.326 1301.74C268.449 1412.21 336.331 1514.7 416.644 1598.15C505.509 1690.48 607.323 1755.56 710.795 1787.28C757.95 1801.37 807.996 1802.73 855.846 1791.21C903.696 1779.69 947.644 1755.71 983.224 1721.71C1164.66 1545.89 1710.35 1019.84 1710.35 1019.84C1798.66 931.728 1823.37 824.155 1783.71 700.326ZM968.589 1682.56C970.533 1669.57 971.585 1656.46 971.739 1643.32C971.8 1638.24 969.84 1633.34 966.289 1629.7C962.738 1626.06 957.887 1623.99 952.804 1623.92H952.567C947.523 1623.92 942.682 1625.91 939.094 1629.46C935.506 1633 933.459 1637.82 933.399 1642.86C933.132 1670.56 928.102 1698.01 918.527 1724.01C889.577 1742.28 857.036 1754.11 823.111 1758.7C789.186 1763.28 754.672 1760.52 721.909 1750.59C497.436 1682.54 333.778 1466.2 255.475 1286.43C217.86 1200.08 233.808 1101.26 296.099 1034.68C296.099 1034.68 930.217 409.146 1013.73 329.629C1042.28 595.135 1435.89 986.79 1678.88 996.94L968.589 1682.56ZM1714.56 956.44C1472.58 998.876 1017.67 492.044 1052.39 293.908C1225.22 147.556 1470.16 334.744 1572.58 445.42C1688.28 560.651 1843.63 789.571 1714.56 956.44Z" fill="white"/>
<path d="M399.178 1033.26C364.961 1029.88 330.413 1032.83 297.266 1041.97C294.822 1042.63 292.534 1043.78 290.535 1045.33C288.535 1046.88 286.863 1048.82 285.616 1051.02C284.368 1053.23 283.569 1055.65 283.266 1058.17C282.962 1060.68 283.16 1063.23 283.847 1065.67C284.534 1068.11 285.698 1070.38 287.27 1072.37C288.843 1074.35 290.793 1076.01 293.008 1077.23C295.223 1078.46 297.659 1079.24 300.176 1079.52C302.693 1079.8 305.24 1079.58 307.671 1078.87C336.292 1071 366.118 1068.49 395.651 1071.45C398.17 1071.71 400.714 1071.46 403.137 1070.72C405.56 1069.99 407.813 1068.78 409.767 1067.17C411.721 1065.56 413.337 1063.58 414.521 1061.35C415.705 1059.11 416.434 1056.66 416.666 1054.14C416.898 1051.62 416.629 1049.07 415.873 1046.66C415.117 1044.24 413.89 1042 412.263 1040.06C410.636 1038.12 408.641 1036.52 406.393 1035.36C404.145 1034.19 401.688 1033.49 399.166 1033.28L399.178 1033.26Z" fill="white"/>
<path d="M667.097 1155.7C663.094 1152.57 658.01 1151.15 652.963 1151.77C647.916 1152.38 643.319 1154.97 640.184 1158.97C637.049 1162.98 635.633 1168.06 636.246 1173.11C636.86 1178.16 639.453 1182.75 643.456 1185.89C667.225 1204.5 691.077 1225.23 714.35 1247.52C718.022 1251.04 722.94 1252.95 728.023 1252.84C733.106 1252.73 737.937 1250.61 741.453 1246.94C744.969 1243.27 746.883 1238.35 746.773 1233.26C746.663 1228.18 744.539 1223.35 740.867 1219.83C716.683 1196.69 691.863 1175.09 667.097 1155.7Z" fill="white"/>
<path d="M920.258 1451.08C919.112 1448.83 917.531 1446.83 915.608 1445.19C913.685 1443.55 911.456 1442.31 909.051 1441.53C906.646 1440.76 904.111 1440.47 901.593 1440.68C899.075 1440.88 896.623 1441.59 894.378 1442.75C892.133 1443.91 890.14 1445.5 888.513 1447.43C886.885 1449.37 885.656 1451.6 884.896 1454.01C884.136 1456.42 883.86 1458.96 884.083 1461.47C884.307 1463.99 885.026 1466.44 886.199 1468.68C900.457 1495.86 911.998 1524.39 920.655 1553.84C921.332 1556.27 922.486 1558.55 924.048 1560.54C925.61 1562.53 927.55 1564.19 929.757 1565.42C931.963 1566.66 934.393 1567.45 936.905 1567.74C939.417 1568.03 941.962 1567.82 944.393 1567.13C946.825 1566.43 949.095 1565.26 951.072 1563.69C953.049 1562.11 954.695 1560.16 955.915 1557.94C957.134 1555.73 957.903 1553.29 958.177 1550.78C958.452 1548.26 958.226 1545.72 957.512 1543.29C948.159 1511.41 935.68 1480.52 920.258 1451.08Z" fill="white"/>
<path d="M808.251 1290.35C804.901 1286.54 800.178 1284.22 795.116 1283.89C790.054 1283.55 785.067 1285.24 781.247 1288.58C777.426 1291.91 775.085 1296.63 774.735 1301.69C774.385 1306.75 776.056 1311.74 779.38 1315.58C800.013 1339.11 819.421 1363.7 837.525 1389.23C840.456 1393.39 844.918 1396.21 849.927 1397.07C854.937 1397.94 860.086 1396.78 864.24 1393.84C868.393 1390.91 871.213 1386.45 872.077 1381.44C872.942 1376.43 871.781 1371.28 868.85 1367.13C849.981 1340.51 829.754 1314.89 808.251 1290.35Z" fill="white"/>
<path d="M586.219 1099.94C557.853 1082.86 528.025 1068.34 497.085 1056.55C494.721 1055.63 492.199 1055.2 489.665 1055.26C487.131 1055.33 484.636 1055.9 482.323 1056.94C480.011 1057.98 477.927 1059.46 476.193 1061.31C474.459 1063.16 473.108 1065.33 472.22 1067.71C471.331 1070.08 470.922 1072.61 471.017 1075.14C471.111 1077.67 471.707 1080.16 472.77 1082.46C473.833 1084.76 475.342 1086.83 477.209 1088.55C479.076 1090.26 481.265 1091.59 483.648 1092.45C512.45 1103.44 540.218 1116.97 566.625 1132.88C570.994 1135.48 576.217 1136.24 581.144 1134.99C586.072 1133.74 590.301 1130.58 592.901 1126.21C595.501 1121.85 596.259 1116.62 595.008 1111.69C593.757 1106.77 590.6 1102.54 586.232 1099.94H586.219Z" fill="white"/>
</svg>
