<svg width="2000" height="2000" viewBox="0 0 2000 2000" fill="none" xmlns="http://www.w3.org/2000/svg">
<path d="M1831.35 1425.81H168.149C142.022 1425.81 118.361 1412.5 104.559 1389.83C91.249 1367.15 90.2631 1340.04 103.08 1316.87L466.874 639.069C488.564 599.14 529.972 574 575.323 574H1424.18C1469.53 574 1511.43 599.14 1532.63 639.069L1896.42 1316.87C1908.74 1340.04 1908.25 1367.15 1894.94 1389.83C1881.14 1412.5 1857.48 1425.81 1831.35 1425.81ZM575.323 623.295C548.211 623.295 523.07 638.083 510.254 662.237L146.459 1340.04C140.544 1351.38 144.98 1360.74 146.952 1364.19C148.924 1367.64 155.332 1376.02 168.149 1376.02H1831.35C1844.17 1376.02 1850.58 1367.64 1852.55 1364.19C1854.52 1360.74 1858.96 1350.88 1853.04 1340.04L1489.25 662.237C1476.43 638.083 1451.29 623.295 1424.18 623.295H575.323Z" fill="white"/>
</svg>
